<svg xmlns="http://www.w3.org/2000/svg" xmlns:xlink="http://www.w3.org/1999/xlink" width="1920" zoomAndPan="magnify" viewBox="0 0 1440 809.999993" height="1080" preserveAspectRatio="xMidYMid meet" version="1.0"><defs><g/><clipPath id="34afab081e"><path d="M 358.050781 315.21875 L 1080.570312 315.21875 L 1080.570312 498.683594 L 358.050781 498.683594 Z M 358.050781 315.21875 " clip-rule="nonzero"/></clipPath></defs><g clip-path="url(#34afab081e)"><path fill="#231f20" d="M 358.050781 315.21875 L 1080.570312 315.21875 L 1080.570312 498.683594 L 358.050781 498.683594 Z M 358.050781 315.21875 " fill-opacity="1" fill-rule="nonzero"/></g><g fill="#f8f8f2" fill-opacity="1"><g transform="translate(388.93991, 464.242536)"><g><path d="M 59.109375 3.171875 C 51.929688 3.171875 45.019531 1.878906 38.375 -0.703125 C 31.726562 -3.296875 25.785156 -7.148438 20.546875 -12.265625 C 15.316406 -17.378906 11.171875 -23.757812 8.109375 -31.40625 C 5.054688 -39.050781 3.53125 -47.992188 3.53125 -58.234375 C 3.53125 -68.347656 5.054688 -77.226562 8.109375 -84.875 C 11.171875 -92.519531 15.347656 -98.898438 20.640625 -104.015625 C 25.929688 -109.128906 31.898438 -113.007812 38.546875 -115.65625 C 45.203125 -118.3125 52.054688 -119.640625 59.109375 -119.640625 C 66.285156 -119.640625 73.195312 -118.375 79.84375 -115.84375 C 86.488281 -113.3125 92.425781 -109.488281 97.65625 -104.375 C 102.894531 -99.257812 107.039062 -92.847656 110.09375 -85.140625 C 113.15625 -77.429688 114.6875 -68.460938 114.6875 -58.234375 C 114.6875 -48.234375 113.15625 -39.378906 110.09375 -31.671875 C 107.039062 -23.960938 102.894531 -17.550781 97.65625 -12.4375 C 92.425781 -7.320312 86.488281 -3.441406 79.84375 -0.796875 C 73.195312 1.847656 66.285156 3.171875 59.109375 3.171875 Z M 59.109375 -0.53125 C 65.578125 -0.53125 70.8125 -2.265625 74.8125 -5.734375 C 78.8125 -9.203125 81.722656 -15.140625 83.546875 -23.546875 C 85.367188 -31.960938 86.28125 -43.523438 86.28125 -58.234375 C 86.28125 -73.054688 85.367188 -84.671875 83.546875 -93.078125 C 81.722656 -101.492188 78.8125 -107.4375 74.8125 -110.90625 C 70.8125 -114.375 65.578125 -116.109375 59.109375 -116.109375 C 52.753906 -116.109375 47.578125 -114.375 43.578125 -110.90625 C 39.578125 -107.4375 36.664062 -101.492188 34.84375 -93.078125 C 33.019531 -84.671875 32.109375 -73.054688 32.109375 -58.234375 C 32.109375 -43.523438 33.019531 -31.960938 34.84375 -23.546875 C 36.664062 -15.140625 39.578125 -9.203125 43.578125 -5.734375 C 47.578125 -2.265625 52.753906 -0.53125 59.109375 -0.53125 Z M 59.109375 -0.53125 "/></g></g></g><g fill="#f8f8f2" fill-opacity="1"><g transform="translate(501.853056, 464.242536)"><g><path d="M 33.703125 2.296875 L 3.875 0 L 3.875 -1.765625 L 5.640625 -2.125 C 10.234375 -3.175781 12.53125 -6.113281 12.53125 -10.9375 L 12.53125 -105.34375 C 12.53125 -107.8125 12.144531 -109.691406 11.375 -110.984375 C 10.613281 -112.285156 9.054688 -113.171875 6.703125 -113.640625 L 4.234375 -114.34375 L 4.234375 -116.109375 L 35.640625 -123.6875 L 37.765625 -122.109375 L 37.0625 -97.21875 L 37.0625 -79.40625 C 40.9375 -82.113281 45.164062 -84.140625 49.75 -85.484375 C 54.34375 -86.835938 58.992188 -87.515625 63.703125 -87.515625 C 70.398438 -87.515625 76.335938 -85.957031 81.515625 -82.84375 C 86.691406 -79.726562 90.78125 -74.90625 93.78125 -68.375 C 96.78125 -61.84375 98.28125 -53.460938 98.28125 -43.234375 C 98.28125 -32.992188 96.601562 -24.492188 93.25 -17.734375 C 89.894531 -10.972656 85.425781 -5.882812 79.84375 -2.46875 C 74.257812 0.9375 68.113281 2.640625 61.40625 2.640625 C 57.050781 2.640625 52.664062 2.050781 48.25 0.875 C 43.84375 -0.289062 39.9375 -1.9375 36.53125 -4.0625 Z M 52.578125 -3.359375 C 56.347656 -3.359375 59.644531 -4.53125 62.46875 -6.875 C 65.289062 -9.226562 67.523438 -13.257812 69.171875 -18.96875 C 70.816406 -24.675781 71.640625 -32.53125 71.640625 -42.53125 C 71.640625 -52.53125 70.875 -60.234375 69.34375 -65.640625 C 67.8125 -71.046875 65.664062 -74.804688 62.90625 -76.921875 C 60.144531 -79.046875 56.820312 -80.109375 52.9375 -80.109375 C 47.40625 -80.109375 42.285156 -78.578125 37.578125 -75.515625 L 37.578125 -7.765625 C 39.816406 -6.347656 42.113281 -5.257812 44.46875 -4.5 C 46.820312 -3.738281 49.523438 -3.359375 52.578125 -3.359375 Z M 52.578125 -3.359375 "/></g></g></g><g fill="#f8f8f2" fill-opacity="1"><g transform="translate(599.064095, 464.242536)"><g><path d="M 34.0625 2.640625 C 28.289062 2.640625 23.109375 1.960938 18.515625 0.609375 C 13.929688 -0.734375 9.703125 -2.40625 5.828125 -4.40625 L 6 -25.40625 L 7.765625 -25.40625 L 13.765625 -14.828125 C 16.347656 -10.117188 19.195312 -6.613281 22.3125 -4.3125 C 25.4375 -2.019531 29.410156 -0.875 34.234375 -0.875 C 39.878906 -0.875 44.4375 -2.140625 47.90625 -4.671875 C 51.375 -7.203125 53.109375 -10.585938 53.109375 -14.828125 C 53.109375 -18.703125 51.875 -21.875 49.40625 -24.34375 C 46.9375 -26.820312 42.347656 -29.0625 35.640625 -31.0625 L 28.234375 -33.34375 C 21.054688 -35.46875 15.40625 -38.765625 11.28125 -43.234375 C 7.164062 -47.703125 5.109375 -53.171875 5.109375 -59.640625 C 5.109375 -67.398438 8.164062 -73.984375 14.28125 -79.390625 C 20.40625 -84.804688 29.171875 -87.515625 40.578125 -87.515625 C 45.171875 -87.515625 49.492188 -87.015625 53.546875 -86.015625 C 57.609375 -85.015625 61.519531 -83.515625 65.28125 -81.515625 L 64.234375 -62.46875 L 62.46875 -62.46875 L 56.28125 -73.40625 C 54.050781 -77.289062 51.847656 -80.023438 49.671875 -81.609375 C 47.492188 -83.191406 44.226562 -83.984375 39.875 -83.984375 C 35.875 -83.984375 32.109375 -82.863281 28.578125 -80.625 C 25.054688 -78.394531 23.296875 -75.222656 23.296875 -71.109375 C 23.296875 -67.109375 24.796875 -63.929688 27.796875 -61.578125 C 30.796875 -59.222656 35.234375 -57.046875 41.109375 -55.046875 L 49.046875 -52.765625 C 57.523438 -50.171875 63.585938 -46.609375 67.234375 -42.078125 C 70.878906 -37.554688 72.703125 -32.117188 72.703125 -25.765625 C 72.703125 -17.171875 69.316406 -10.285156 62.546875 -5.109375 C 55.785156 0.0546875 46.289062 2.640625 34.0625 2.640625 Z M 34.0625 2.640625 "/></g></g></g><g fill="#f8f8f2" fill-opacity="1"><g transform="translate(670.693083, 464.242536)"><g><path d="M 47.296875 2.640625 C 39.296875 2.640625 32.03125 0.90625 25.5 -2.5625 C 18.96875 -6.03125 13.789062 -11.085938 9.96875 -17.734375 C 6.144531 -24.378906 4.234375 -32.523438 4.234375 -42.171875 C 4.234375 -51.703125 6.320312 -59.847656 10.5 -66.609375 C 14.675781 -73.367188 20.265625 -78.539062 27.265625 -82.125 C 34.265625 -85.71875 41.941406 -87.515625 50.296875 -87.515625 C 57.109375 -87.515625 62.867188 -86.394531 67.578125 -84.15625 C 72.285156 -81.925781 75.875 -79.015625 78.34375 -75.421875 C 80.8125 -71.835938 82.046875 -68.109375 82.046875 -64.234375 C 82.046875 -60.929688 81.046875 -58.367188 79.046875 -56.546875 C 77.046875 -54.722656 74.457031 -53.8125 71.28125 -53.8125 C 67.875 -53.8125 65.109375 -55.046875 62.984375 -57.515625 C 60.867188 -59.992188 59.632812 -63.234375 59.28125 -67.234375 C 59.164062 -69.816406 59.222656 -72.019531 59.453125 -73.84375 C 59.691406 -75.664062 59.695312 -77.519531 59.46875 -79.40625 C 59 -81.40625 58.265625 -82.726562 57.265625 -83.375 C 56.265625 -84.019531 54.878906 -84.34375 53.109375 -84.34375 C 45.929688 -84.34375 40.375 -81.222656 36.4375 -74.984375 C 32.5 -68.753906 30.53125 -58.816406 30.53125 -45.171875 C 30.53125 -33.285156 32.734375 -24.195312 37.140625 -17.90625 C 41.554688 -11.613281 48.351562 -8.46875 57.53125 -8.46875 C 63.050781 -8.46875 67.515625 -9.46875 70.921875 -11.46875 C 74.335938 -13.46875 77.632812 -16.46875 80.8125 -20.46875 L 82.578125 -19.0625 C 79.640625 -12.113281 75.109375 -6.757812 68.984375 -3 C 62.867188 0.757812 55.640625 2.640625 47.296875 2.640625 Z M 47.296875 2.640625 "/></g></g></g><g fill="#f8f8f2" fill-opacity="1"><g transform="translate(752.554896, 464.242536)"><g><path d="M 35.46875 2.640625 C 30.875 2.640625 26.664062 1.757812 22.84375 0 C 19.019531 -1.757812 16.019531 -4.609375 13.84375 -8.546875 C 11.675781 -12.492188 10.648438 -17.703125 10.765625 -24.171875 L 11.296875 -69.515625 C 11.296875 -72.222656 10.820312 -74.164062 9.875 -75.34375 C 8.9375 -76.519531 7.46875 -77.34375 5.46875 -77.8125 L 3.359375 -78.515625 L 3.359375 -80.28125 L 34.9375 -86.46875 L 36.703125 -84.703125 L 35.8125 -59.640625 L 35.8125 -17.109375 C 35.8125 -13.347656 36.898438 -10.582031 39.078125 -8.8125 C 41.253906 -7.050781 43.992188 -6.171875 47.296875 -6.171875 C 50.585938 -6.171875 53.523438 -6.640625 56.109375 -7.578125 C 58.703125 -8.523438 61.289062 -9.941406 63.875 -11.828125 L 64.578125 -69.34375 C 64.578125 -72.050781 64.164062 -73.960938 63.34375 -75.078125 C 62.519531 -76.191406 60.992188 -76.988281 58.765625 -77.46875 L 57 -78 L 57 -79.75 L 87.875 -86.46875 L 89.640625 -84.703125 L 89.109375 -59.640625 L 89.109375 -11.828125 C 89.109375 -9.234375 89.457031 -7.226562 90.15625 -5.8125 C 90.863281 -4.40625 92.394531 -3.234375 94.75 -2.296875 L 96.515625 -1.765625 L 96.515625 0 L 65.640625 1.765625 L 64.046875 -8.640625 C 60.171875 -5.460938 55.96875 -2.785156 51.4375 -0.609375 C 46.90625 1.554688 41.582031 2.640625 35.46875 2.640625 Z M 35.46875 2.640625 "/></g></g></g><g fill="#f8f8f2" fill-opacity="1"><g transform="translate(847.295952, 464.242536)"><g><path d="M 3.53125 0 L 3.53125 -1.765625 L 6.171875 -2.46875 C 8.523438 -3.175781 10.144531 -4.234375 11.03125 -5.640625 C 11.914062 -7.054688 12.359375 -8.878906 12.359375 -11.109375 L 12.359375 -66.34375 C 12.359375 -68.9375 11.914062 -70.847656 11.03125 -72.078125 C 10.144531 -73.316406 8.523438 -74.171875 6.171875 -74.640625 L 3.53125 -75.34375 L 3.53125 -77.109375 L 33.875 -87.34375 L 35.640625 -85.578125 L 37.234375 -70.40625 L 37.234375 -69 C 38.878906 -72.289062 41.023438 -75.316406 43.671875 -78.078125 C 46.316406 -80.847656 49.253906 -83.113281 52.484375 -84.875 C 55.722656 -86.632812 58.929688 -87.515625 62.109375 -87.515625 C 66.578125 -87.515625 69.988281 -86.28125 72.34375 -83.8125 C 74.695312 -81.34375 75.875 -78.226562 75.875 -74.46875 C 75.875 -70.46875 74.726562 -67.378906 72.4375 -65.203125 C 70.144531 -63.023438 67.410156 -61.9375 64.234375 -61.9375 C 59.285156 -61.9375 54.929688 -64.40625 51.171875 -69.34375 L 50.8125 -69.703125 C 49.632812 -71.347656 48.28125 -72.257812 46.75 -72.4375 C 45.226562 -72.613281 43.820312 -71.878906 42.53125 -70.234375 C 41.351562 -69.171875 40.378906 -67.90625 39.609375 -66.4375 C 38.847656 -64.96875 38.113281 -63.289062 37.40625 -61.40625 L 37.40625 -12.171875 C 37.40625 -7.460938 39.460938 -4.523438 43.578125 -3.359375 L 49.234375 -1.765625 L 49.234375 0 Z M 3.53125 0 "/></g></g></g><g fill="#f8f8f2" fill-opacity="1"><g transform="translate(919.807071, 464.242536)"><g><path d="M 29.296875 2.640625 C 22.472656 2.640625 16.734375 0.703125 12.078125 -3.171875 C 7.429688 -7.054688 5.109375 -12.644531 5.109375 -19.9375 C 5.109375 -25.46875 7.929688 -30.554688 13.578125 -35.203125 C 19.234375 -39.847656 28.117188 -43.347656 40.234375 -45.703125 C 42.109375 -46.054688 44.222656 -46.4375 46.578125 -46.84375 C 48.929688 -47.257812 51.40625 -47.703125 54 -48.171875 L 54 -62.109375 C 54 -70.109375 53.023438 -75.722656 51.078125 -78.953125 C 49.140625 -82.191406 46.113281 -83.8125 42 -83.8125 C 39.175781 -83.8125 36.9375 -82.898438 35.28125 -81.078125 C 33.632812 -79.253906 32.578125 -76.109375 32.109375 -71.640625 L 31.765625 -69.703125 C 31.523438 -64.640625 30.285156 -60.929688 28.046875 -58.578125 C 25.816406 -56.222656 23.054688 -55.046875 19.765625 -55.046875 C 16.703125 -55.046875 14.171875 -55.988281 12.171875 -57.875 C 10.171875 -59.757812 9.171875 -62.289062 9.171875 -65.46875 C 9.171875 -70.289062 10.847656 -74.347656 14.203125 -77.640625 C 17.554688 -80.929688 21.992188 -83.398438 27.515625 -85.046875 C 33.046875 -86.691406 39.050781 -87.515625 45.53125 -87.515625 C 56 -87.515625 64.082031 -84.957031 69.78125 -79.84375 C 75.488281 -74.726562 78.34375 -66.40625 78.34375 -54.875 L 78.34375 -15.875 C 78.34375 -10.582031 80.8125 -7.9375 85.75 -7.9375 L 89.640625 -7.9375 L 91.21875 -6.53125 C 88.988281 -3.707031 86.550781 -1.53125 83.90625 0 C 81.257812 1.53125 77.523438 2.296875 72.703125 2.296875 C 67.523438 2.296875 63.4375 1.09375 60.4375 -1.3125 C 57.4375 -3.726562 55.46875 -6.9375 54.53125 -10.9375 C 51 -7.175781 47.378906 -3.972656 43.671875 -1.328125 C 39.960938 1.316406 35.171875 2.640625 29.296875 2.640625 Z M 40.0625 -8.109375 C 42.40625 -8.109375 44.609375 -8.664062 46.671875 -9.78125 C 48.734375 -10.90625 51.175781 -12.644531 54 -15 L 54 -44.640625 C 52.820312 -44.410156 51.644531 -44.175781 50.46875 -43.9375 C 49.289062 -43.695312 47.9375 -43.460938 46.40625 -43.234375 C 41 -41.816406 36.675781 -39.429688 33.4375 -36.078125 C 30.195312 -32.734375 28.578125 -28.238281 28.578125 -22.59375 C 28.578125 -17.757812 29.695312 -14.132812 31.9375 -11.71875 C 34.175781 -9.3125 36.882812 -8.109375 40.0625 -8.109375 Z M 40.0625 -8.109375 "/></g></g></g><g fill="#f8f8f2" fill-opacity="1"><g transform="translate(1005.903142, 464.242536)"><g><path d="M 26.46875 2.640625 C 22.226562 2.640625 18.640625 1.171875 15.703125 -1.765625 C 12.765625 -4.703125 11.296875 -8.234375 11.296875 -12.359375 C 11.296875 -16.472656 12.765625 -20.054688 15.703125 -23.109375 C 18.640625 -26.171875 22.226562 -27.703125 26.46875 -27.703125 C 30.695312 -27.703125 34.28125 -26.171875 37.21875 -23.109375 C 40.164062 -20.054688 41.640625 -16.472656 41.640625 -12.359375 C 41.640625 -8.234375 40.164062 -4.703125 37.21875 -1.765625 C 34.28125 1.171875 30.695312 2.640625 26.46875 2.640625 Z M 26.46875 2.640625 "/></g></g></g></svg>