<svg xmlns="http://www.w3.org/2000/svg" xmlns:xlink="http://www.w3.org/1999/xlink" width="500" zoomAndPan="magnify" viewBox="0 0 375 374.999991" height="500" preserveAspectRatio="xMidYMid meet" version="1.0"><defs><g/></defs><g fill="#f8f8f2" fill-opacity="1"><g transform="translate(32.426165, 215.249986)"><g><path d="M 27.359375 1.46875 C 24.035156 1.46875 20.835938 0.867188 17.765625 -0.328125 C 14.691406 -1.523438 11.941406 -3.304688 9.515625 -5.671875 C 7.085938 -8.046875 5.164062 -11 3.75 -14.53125 C 2.34375 -18.070312 1.640625 -22.210938 1.640625 -26.953125 C 1.640625 -31.640625 2.34375 -35.75 3.75 -39.28125 C 5.164062 -42.820312 7.097656 -45.773438 9.546875 -48.140625 C 12.003906 -50.515625 14.769531 -52.316406 17.84375 -53.546875 C 20.925781 -54.773438 24.097656 -55.390625 27.359375 -55.390625 C 30.679688 -55.390625 33.878906 -54.800781 36.953125 -53.625 C 40.035156 -52.457031 42.785156 -50.6875 45.203125 -48.3125 C 47.628906 -45.945312 49.550781 -42.976562 50.96875 -39.40625 C 52.382812 -35.84375 53.09375 -31.691406 53.09375 -26.953125 C 53.09375 -22.328125 52.382812 -18.226562 50.96875 -14.65625 C 49.550781 -11.09375 47.628906 -8.125 45.203125 -5.75 C 42.785156 -3.382812 40.035156 -1.585938 36.953125 -0.359375 C 33.878906 0.859375 30.679688 1.46875 27.359375 1.46875 Z M 27.359375 -0.25 C 30.359375 -0.25 32.78125 -1.050781 34.625 -2.65625 C 36.476562 -4.257812 37.828125 -7.007812 38.671875 -10.90625 C 39.515625 -14.800781 39.9375 -20.148438 39.9375 -26.953125 C 39.9375 -33.816406 39.515625 -39.195312 38.671875 -43.09375 C 37.828125 -46.988281 36.476562 -49.738281 34.625 -51.34375 C 32.78125 -52.945312 30.359375 -53.75 27.359375 -53.75 C 24.421875 -53.75 22.023438 -52.945312 20.171875 -51.34375 C 18.328125 -49.738281 16.976562 -46.988281 16.125 -43.09375 C 15.28125 -39.195312 14.859375 -33.816406 14.859375 -26.953125 C 14.859375 -20.148438 15.28125 -14.800781 16.125 -10.90625 C 16.976562 -7.007812 18.328125 -4.257812 20.171875 -2.65625 C 22.023438 -1.050781 24.421875 -0.25 27.359375 -0.25 Z M 27.359375 -0.25 "/></g></g></g><g fill="#f8f8f2" fill-opacity="1"><g transform="translate(84.700765, 215.249986)"><g><path d="M 15.609375 1.0625 L 1.796875 0 L 1.796875 -0.8125 L 2.609375 -0.984375 C 4.734375 -1.472656 5.796875 -2.832031 5.796875 -5.0625 L 5.796875 -48.765625 C 5.796875 -49.910156 5.617188 -50.78125 5.265625 -51.375 C 4.910156 -51.976562 4.191406 -52.390625 3.109375 -52.609375 L 1.953125 -52.9375 L 1.953125 -53.75 L 16.5 -57.265625 L 17.484375 -56.53125 L 17.15625 -45.015625 L 17.15625 -36.765625 C 18.945312 -38.015625 20.90625 -38.953125 23.03125 -39.578125 C 25.15625 -40.203125 27.304688 -40.515625 29.484375 -40.515625 C 32.585938 -40.515625 35.335938 -39.789062 37.734375 -38.34375 C 40.128906 -36.90625 42.019531 -34.675781 43.40625 -31.65625 C 44.800781 -28.632812 45.5 -24.753906 45.5 -20.015625 C 45.5 -15.273438 44.722656 -11.335938 43.171875 -8.203125 C 41.617188 -5.078125 39.546875 -2.722656 36.953125 -1.140625 C 34.367188 0.429688 31.523438 1.21875 28.421875 1.21875 C 26.410156 1.21875 24.382812 0.945312 22.34375 0.40625 C 20.300781 -0.132812 18.488281 -0.894531 16.90625 -1.875 Z M 24.34375 -1.546875 C 26.082031 -1.546875 27.601562 -2.085938 28.90625 -3.171875 C 30.21875 -4.265625 31.253906 -6.132812 32.015625 -8.78125 C 32.785156 -11.425781 33.171875 -15.0625 33.171875 -19.6875 C 33.171875 -24.3125 32.816406 -27.875 32.109375 -30.375 C 31.398438 -32.882812 30.40625 -34.628906 29.125 -35.609375 C 27.84375 -36.597656 26.300781 -37.09375 24.5 -37.09375 C 21.945312 -37.09375 19.582031 -36.382812 17.40625 -34.96875 L 17.40625 -3.59375 C 18.4375 -2.9375 19.492188 -2.429688 20.578125 -2.078125 C 21.671875 -1.722656 22.925781 -1.546875 24.34375 -1.546875 Z M 24.34375 -1.546875 "/></g></g></g><g fill="#f8f8f2" fill-opacity="1"><g transform="translate(129.705872, 215.249986)"><g><path d="M 15.765625 1.21875 C 13.097656 1.21875 10.703125 0.90625 8.578125 0.28125 C 6.453125 -0.34375 4.492188 -1.117188 2.703125 -2.046875 L 2.78125 -11.765625 L 3.59375 -11.765625 L 6.375 -6.859375 C 7.570312 -4.679688 8.890625 -3.0625 10.328125 -2 C 11.773438 -0.9375 13.613281 -0.40625 15.84375 -0.40625 C 18.457031 -0.40625 20.566406 -0.988281 22.171875 -2.15625 C 23.785156 -3.332031 24.59375 -4.898438 24.59375 -6.859375 C 24.59375 -8.660156 24.019531 -10.128906 22.875 -11.265625 C 21.726562 -12.410156 19.601562 -13.445312 16.5 -14.375 L 13.0625 -15.4375 C 9.75 -16.414062 7.140625 -17.941406 5.234375 -20.015625 C 3.328125 -22.085938 2.375 -24.617188 2.375 -27.609375 C 2.375 -31.203125 3.785156 -34.25 6.609375 -36.75 C 9.441406 -39.257812 13.5 -40.515625 18.78125 -40.515625 C 20.90625 -40.515625 22.90625 -40.28125 24.78125 -39.8125 C 26.664062 -39.351562 28.476562 -38.660156 30.21875 -37.734375 L 29.734375 -28.921875 L 28.921875 -28.921875 L 26.0625 -33.984375 C 25.019531 -35.773438 23.992188 -37.039062 22.984375 -37.78125 C 21.984375 -38.519531 20.476562 -38.890625 18.46875 -38.890625 C 16.613281 -38.890625 14.867188 -38.367188 13.234375 -37.328125 C 11.597656 -36.296875 10.78125 -34.828125 10.78125 -32.921875 C 10.78125 -31.066406 11.472656 -29.59375 12.859375 -28.5 C 14.253906 -27.414062 16.3125 -26.410156 19.03125 -25.484375 L 22.703125 -24.421875 C 26.628906 -23.222656 29.4375 -21.578125 31.125 -19.484375 C 32.8125 -17.390625 33.65625 -14.867188 33.65625 -11.921875 C 33.65625 -7.953125 32.085938 -4.769531 28.953125 -2.375 C 25.828125 0.0195312 21.429688 1.21875 15.765625 1.21875 Z M 15.765625 1.21875 "/></g></g></g><g fill="#f8f8f2" fill-opacity="1"><g transform="translate(162.867438, 215.249986)"><g><path d="M 21.890625 1.21875 C 18.191406 1.21875 14.828125 0.414062 11.796875 -1.1875 C 8.773438 -2.789062 6.378906 -5.128906 4.609375 -8.203125 C 2.835938 -11.285156 1.953125 -15.054688 1.953125 -19.515625 C 1.953125 -23.929688 2.921875 -27.703125 4.859375 -30.828125 C 6.796875 -33.960938 9.382812 -36.359375 12.625 -38.015625 C 15.863281 -39.679688 19.414062 -40.515625 23.28125 -40.515625 C 26.4375 -40.515625 29.101562 -39.992188 31.28125 -38.953125 C 33.457031 -37.921875 35.117188 -36.578125 36.265625 -34.921875 C 37.410156 -33.265625 37.984375 -31.535156 37.984375 -29.734375 C 37.984375 -28.210938 37.519531 -27.03125 36.59375 -26.1875 C 35.664062 -25.34375 34.46875 -24.921875 33 -24.921875 C 31.414062 -24.921875 30.132812 -25.488281 29.15625 -26.625 C 28.175781 -27.769531 27.609375 -29.269531 27.453125 -31.125 C 27.390625 -32.320312 27.410156 -33.34375 27.515625 -34.1875 C 27.628906 -35.03125 27.632812 -35.890625 27.53125 -36.765625 C 27.3125 -37.679688 26.96875 -38.289062 26.5 -38.59375 C 26.039062 -38.894531 25.40625 -39.046875 24.59375 -39.046875 C 21.269531 -39.046875 18.691406 -37.601562 16.859375 -34.71875 C 15.035156 -31.832031 14.125 -27.226562 14.125 -20.90625 C 14.125 -15.40625 15.144531 -11.195312 17.1875 -8.28125 C 19.238281 -5.375 22.382812 -3.921875 26.625 -3.921875 C 29.1875 -3.921875 31.253906 -4.382812 32.828125 -5.3125 C 34.410156 -6.238281 35.9375 -7.625 37.40625 -9.46875 L 38.234375 -8.828125 C 36.867188 -5.609375 34.769531 -3.128906 31.9375 -1.390625 C 29.101562 0.347656 25.753906 1.21875 21.890625 1.21875 Z M 21.890625 1.21875 "/></g></g></g><g fill="#f8f8f2" fill-opacity="1"><g transform="translate(200.766422, 215.249986)"><g><path d="M 16.421875 1.21875 C 14.296875 1.21875 12.347656 0.8125 10.578125 0 C 8.804688 -0.8125 7.414062 -2.128906 6.40625 -3.953125 C 5.40625 -5.785156 4.929688 -8.195312 4.984375 -11.1875 L 5.234375 -32.1875 C 5.234375 -33.4375 5.015625 -34.332031 4.578125 -34.875 C 4.140625 -35.425781 3.457031 -35.8125 2.53125 -36.03125 L 1.546875 -36.34375 L 1.546875 -37.171875 L 16.171875 -40.03125 L 16.984375 -39.203125 L 16.578125 -27.609375 L 16.578125 -7.921875 C 16.578125 -6.179688 17.082031 -4.898438 18.09375 -4.078125 C 19.101562 -3.265625 20.367188 -2.859375 21.890625 -2.859375 C 23.410156 -2.859375 24.769531 -3.078125 25.96875 -3.515625 C 27.175781 -3.953125 28.378906 -4.601562 29.578125 -5.46875 L 29.890625 -32.109375 C 29.890625 -33.359375 29.695312 -34.238281 29.3125 -34.75 C 28.9375 -35.269531 28.234375 -35.640625 27.203125 -35.859375 L 26.390625 -36.109375 L 26.390625 -36.921875 L 40.6875 -40.03125 L 41.5 -39.203125 L 41.25 -27.609375 L 41.25 -5.46875 C 41.25 -4.269531 41.410156 -3.34375 41.734375 -2.6875 C 42.066406 -2.039062 42.773438 -1.5 43.859375 -1.0625 L 44.6875 -0.8125 L 44.6875 0 L 30.390625 0.8125 L 29.65625 -4 C 27.851562 -2.53125 25.90625 -1.289062 23.8125 -0.28125 C 21.71875 0.71875 19.253906 1.21875 16.421875 1.21875 Z M 16.421875 1.21875 "/></g></g></g><g fill="#f8f8f2" fill-opacity="1"><g transform="translate(244.628018, 215.249986)"><g><path d="M 1.640625 0 L 1.640625 -0.8125 L 2.859375 -1.140625 C 3.953125 -1.472656 4.703125 -1.960938 5.109375 -2.609375 C 5.515625 -3.265625 5.71875 -4.109375 5.71875 -5.140625 L 5.71875 -30.71875 C 5.71875 -31.914062 5.515625 -32.800781 5.109375 -33.375 C 4.703125 -33.945312 3.953125 -34.335938 2.859375 -34.546875 L 1.640625 -34.875 L 1.640625 -35.703125 L 15.6875 -40.4375 L 16.5 -39.625 L 17.234375 -32.59375 L 17.234375 -31.9375 C 17.992188 -33.46875 18.988281 -34.867188 20.21875 -36.140625 C 21.445312 -37.421875 22.804688 -38.46875 24.296875 -39.28125 C 25.796875 -40.101562 27.28125 -40.515625 28.75 -40.515625 C 30.820312 -40.515625 32.398438 -39.941406 33.484375 -38.796875 C 34.578125 -37.660156 35.125 -36.21875 35.125 -34.46875 C 35.125 -32.613281 34.59375 -31.179688 33.53125 -30.171875 C 32.46875 -29.171875 31.203125 -28.671875 29.734375 -28.671875 C 27.441406 -28.671875 25.425781 -29.816406 23.6875 -32.109375 L 23.53125 -32.265625 C 22.976562 -33.023438 22.347656 -33.445312 21.640625 -33.53125 C 20.929688 -33.613281 20.28125 -33.273438 19.6875 -32.515625 C 19.144531 -32.023438 18.695312 -31.4375 18.34375 -30.75 C 17.988281 -30.070312 17.644531 -29.296875 17.3125 -28.421875 L 17.3125 -5.640625 C 17.3125 -3.460938 18.265625 -2.097656 20.171875 -1.546875 L 22.796875 -0.8125 L 22.796875 0 Z M 1.640625 0 "/></g></g></g><g fill="#f8f8f2" fill-opacity="1"><g transform="translate(278.197978, 215.249986)"><g><path d="M 13.5625 1.21875 C 10.40625 1.21875 7.75 0.320312 5.59375 -1.46875 C 3.445312 -3.269531 2.375 -5.859375 2.375 -9.234375 C 2.375 -11.785156 3.675781 -14.132812 6.28125 -16.28125 C 8.894531 -18.4375 13.007812 -20.0625 18.625 -21.15625 C 19.5 -21.320312 20.476562 -21.5 21.5625 -21.6875 C 22.65625 -21.875 23.800781 -22.078125 25 -22.296875 L 25 -28.75 C 25 -32.457031 24.546875 -35.054688 23.640625 -36.546875 C 22.742188 -38.046875 21.34375 -38.796875 19.4375 -38.796875 C 18.132812 -38.796875 17.097656 -38.375 16.328125 -37.53125 C 15.566406 -36.6875 15.078125 -35.234375 14.859375 -33.171875 L 14.703125 -32.265625 C 14.597656 -29.921875 14.023438 -28.203125 12.984375 -27.109375 C 11.953125 -26.023438 10.675781 -25.484375 9.15625 -25.484375 C 7.738281 -25.484375 6.566406 -25.914062 5.640625 -26.78125 C 4.710938 -27.65625 4.25 -28.832031 4.25 -30.3125 C 4.25 -32.539062 5.023438 -34.414062 6.578125 -35.9375 C 8.128906 -37.46875 10.179688 -38.613281 12.734375 -39.375 C 15.296875 -40.132812 18.078125 -40.515625 21.078125 -40.515625 C 25.921875 -40.515625 29.660156 -39.328125 32.296875 -36.953125 C 34.941406 -34.585938 36.265625 -30.738281 36.265625 -25.40625 L 36.265625 -7.359375 C 36.265625 -4.898438 37.410156 -3.671875 39.703125 -3.671875 L 41.5 -3.671875 L 42.234375 -3.015625 C 41.203125 -1.710938 40.070312 -0.707031 38.84375 0 C 37.613281 0.707031 35.882812 1.0625 33.65625 1.0625 C 31.257812 1.0625 29.363281 0.503906 27.96875 -0.609375 C 26.582031 -1.722656 25.671875 -3.207031 25.234375 -5.0625 C 23.609375 -3.320312 21.9375 -1.835938 20.21875 -0.609375 C 18.5 0.609375 16.28125 1.21875 13.5625 1.21875 Z M 18.546875 -3.75 C 19.628906 -3.75 20.644531 -4.007812 21.59375 -4.53125 C 22.550781 -5.050781 23.6875 -5.851562 25 -6.9375 L 25 -20.671875 C 24.445312 -20.554688 23.898438 -20.441406 23.359375 -20.328125 C 22.816406 -20.222656 22.191406 -20.117188 21.484375 -20.015625 C 18.972656 -19.359375 16.96875 -18.253906 15.46875 -16.703125 C 13.976562 -15.148438 13.234375 -13.066406 13.234375 -10.453125 C 13.234375 -8.222656 13.75 -6.546875 14.78125 -5.421875 C 15.820312 -4.304688 17.078125 -3.75 18.546875 -3.75 Z M 18.546875 -3.75 "/></g></g></g><g fill="#f8f8f2" fill-opacity="1"><g transform="translate(318.057266, 215.249986)"><g><path d="M 12.25 1.21875 C 10.289062 1.21875 8.628906 0.539062 7.265625 -0.8125 C 5.910156 -2.175781 5.234375 -3.8125 5.234375 -5.71875 C 5.234375 -7.625 5.910156 -9.285156 7.265625 -10.703125 C 8.628906 -12.117188 10.289062 -12.828125 12.25 -12.828125 C 14.207031 -12.828125 15.867188 -12.117188 17.234375 -10.703125 C 18.597656 -9.285156 19.28125 -7.625 19.28125 -5.71875 C 19.28125 -3.8125 18.597656 -2.175781 17.234375 -0.8125 C 15.867188 0.539062 14.207031 1.21875 12.25 1.21875 Z M 12.25 1.21875 "/></g></g></g></svg>