<svg xmlns="http://www.w3.org/2000/svg" xmlns:xlink="http://www.w3.org/1999/xlink" width="500" zoomAndPan="magnify" viewBox="0 0 375 374.999991" height="500" preserveAspectRatio="xMidYMid meet" version="1.0"><defs><g/></defs><g fill="#f8f8f2" fill-opacity="1"><g transform="translate(79.875348, 206.249986)"><g><path d="M 18.984375 1.015625 C 16.679688 1.015625 14.460938 0.601562 12.328125 -0.21875 C 10.191406 -1.050781 8.28125 -2.289062 6.59375 -3.9375 C 4.914062 -5.582031 3.585938 -7.632812 2.609375 -10.09375 C 1.628906 -12.550781 1.140625 -15.421875 1.140625 -18.703125 C 1.140625 -21.953125 1.628906 -24.804688 2.609375 -27.265625 C 3.585938 -29.722656 4.925781 -31.773438 6.625 -33.421875 C 8.332031 -35.066406 10.253906 -36.3125 12.390625 -37.15625 C 14.523438 -38.007812 16.722656 -38.4375 18.984375 -38.4375 C 21.296875 -38.4375 23.519531 -38.03125 25.65625 -37.21875 C 27.789062 -36.40625 29.695312 -35.175781 31.375 -33.53125 C 33.0625 -31.882812 34.394531 -29.820312 35.375 -27.34375 C 36.351562 -24.875 36.84375 -21.992188 36.84375 -18.703125 C 36.84375 -15.492188 36.351562 -12.648438 35.375 -10.171875 C 34.394531 -7.703125 33.0625 -5.644531 31.375 -4 C 29.695312 -2.351562 27.789062 -1.101562 25.65625 -0.25 C 23.519531 0.59375 21.296875 1.015625 18.984375 1.015625 Z M 18.984375 -0.171875 C 21.066406 -0.171875 22.75 -0.726562 24.03125 -1.84375 C 25.320312 -2.957031 26.257812 -4.863281 26.84375 -7.5625 C 27.425781 -10.269531 27.71875 -13.984375 27.71875 -18.703125 C 27.71875 -23.460938 27.425781 -27.191406 26.84375 -29.890625 C 26.257812 -32.597656 25.320312 -34.507812 24.03125 -35.625 C 22.75 -36.738281 21.066406 -37.296875 18.984375 -37.296875 C 16.941406 -37.296875 15.28125 -36.738281 14 -35.625 C 12.71875 -34.507812 11.78125 -32.597656 11.1875 -29.890625 C 10.601562 -27.191406 10.3125 -23.460938 10.3125 -18.703125 C 10.3125 -13.984375 10.601562 -10.269531 11.1875 -7.5625 C 11.78125 -4.863281 12.71875 -2.957031 14 -1.84375 C 15.28125 -0.726562 16.941406 -0.171875 18.984375 -0.171875 Z M 18.984375 -0.171875 "/></g></g></g><g fill="#f8f8f2" fill-opacity="1"><g transform="translate(116.152547, 206.249986)"><g><path d="M 10.828125 0.734375 L 1.25 0 L 1.25 -0.5625 L 1.8125 -0.6875 C 3.289062 -1.019531 4.03125 -1.960938 4.03125 -3.515625 L 4.03125 -33.84375 C 4.03125 -34.632812 3.90625 -35.238281 3.65625 -35.65625 C 3.40625 -36.070312 2.90625 -36.351562 2.15625 -36.5 L 1.359375 -36.734375 L 1.359375 -37.296875 L 11.453125 -39.734375 L 12.125 -39.234375 L 11.90625 -31.234375 L 11.90625 -25.515625 C 13.15625 -26.378906 14.515625 -27.023438 15.984375 -27.453125 C 17.460938 -27.890625 18.957031 -28.109375 20.46875 -28.109375 C 22.625 -28.109375 24.53125 -27.609375 26.1875 -26.609375 C 27.851562 -25.609375 29.164062 -24.054688 30.125 -21.953125 C 31.09375 -19.859375 31.578125 -17.171875 31.578125 -13.890625 C 31.578125 -10.597656 31.035156 -7.863281 29.953125 -5.6875 C 28.878906 -3.519531 27.441406 -1.890625 25.640625 -0.796875 C 23.847656 0.296875 21.878906 0.84375 19.734375 0.84375 C 18.328125 0.84375 16.914062 0.65625 15.5 0.28125 C 14.082031 -0.09375 12.828125 -0.617188 11.734375 -1.296875 Z M 16.890625 -1.078125 C 18.097656 -1.078125 19.15625 -1.453125 20.0625 -2.203125 C 20.96875 -2.960938 21.6875 -4.257812 22.21875 -6.09375 C 22.75 -7.925781 23.015625 -10.445312 23.015625 -13.65625 C 23.015625 -16.875 22.769531 -19.351562 22.28125 -21.09375 C 21.789062 -22.832031 21.097656 -24.039062 20.203125 -24.71875 C 19.316406 -25.394531 18.25 -25.734375 17 -25.734375 C 15.226562 -25.734375 13.585938 -25.242188 12.078125 -24.265625 L 12.078125 -2.5 C 12.796875 -2.039062 13.53125 -1.6875 14.28125 -1.4375 C 15.039062 -1.195312 15.910156 -1.078125 16.890625 -1.078125 Z M 16.890625 -1.078125 "/></g></g></g><g fill="#f8f8f2" fill-opacity="1"><g transform="translate(147.384893, 206.249986)"><g><path d="M 10.9375 0.84375 C 9.082031 0.84375 7.414062 0.625 5.9375 0.1875 C 4.46875 -0.238281 3.113281 -0.773438 1.875 -1.421875 L 1.921875 -8.15625 L 2.5 -8.15625 L 4.421875 -4.765625 C 5.253906 -3.253906 6.171875 -2.128906 7.171875 -1.390625 C 8.171875 -0.648438 9.445312 -0.28125 11 -0.28125 C 12.8125 -0.28125 14.273438 -0.6875 15.390625 -1.5 C 16.503906 -2.3125 17.0625 -3.398438 17.0625 -4.765625 C 17.0625 -6.003906 16.664062 -7.019531 15.875 -7.8125 C 15.082031 -8.613281 13.609375 -9.335938 11.453125 -9.984375 L 9.0625 -10.71875 C 6.757812 -11.394531 4.945312 -12.453125 3.625 -13.890625 C 2.300781 -15.328125 1.640625 -17.082031 1.640625 -19.15625 C 1.640625 -21.65625 2.625 -23.769531 4.59375 -25.5 C 6.5625 -27.238281 9.375 -28.109375 13.03125 -28.109375 C 14.507812 -28.109375 15.898438 -27.945312 17.203125 -27.625 C 18.503906 -27.3125 19.757812 -26.832031 20.96875 -26.1875 L 20.640625 -20.0625 L 20.0625 -20.0625 L 18.078125 -23.578125 C 17.359375 -24.828125 16.648438 -25.707031 15.953125 -26.21875 C 15.253906 -26.726562 14.207031 -26.984375 12.8125 -26.984375 C 11.53125 -26.984375 10.320312 -26.625 9.1875 -25.90625 C 8.050781 -25.1875 7.484375 -24.164062 7.484375 -22.84375 C 7.484375 -21.5625 7.960938 -20.539062 8.921875 -19.78125 C 9.890625 -19.03125 11.316406 -18.332031 13.203125 -17.6875 L 15.765625 -16.953125 C 18.484375 -16.117188 20.425781 -14.972656 21.59375 -13.515625 C 22.769531 -12.066406 23.359375 -10.320312 23.359375 -8.28125 C 23.359375 -5.519531 22.269531 -3.304688 20.09375 -1.640625 C 17.925781 0.015625 14.875 0.84375 10.9375 0.84375 Z M 10.9375 0.84375 "/></g></g></g><g fill="#f8f8f2" fill-opacity="1"><g transform="translate(170.398114, 206.249986)"><g><path d="M 15.1875 0.84375 C 12.625 0.84375 10.289062 0.285156 8.1875 -0.828125 C 6.09375 -1.941406 4.429688 -3.566406 3.203125 -5.703125 C 1.972656 -7.835938 1.359375 -10.453125 1.359375 -13.546875 C 1.359375 -16.609375 2.03125 -19.222656 3.375 -21.390625 C 4.71875 -23.566406 6.507812 -25.226562 8.75 -26.375 C 11 -27.53125 13.46875 -28.109375 16.15625 -28.109375 C 18.34375 -28.109375 20.191406 -27.75 21.703125 -27.03125 C 23.222656 -26.320312 24.378906 -25.390625 25.171875 -24.234375 C 25.960938 -23.078125 26.359375 -21.878906 26.359375 -20.640625 C 26.359375 -19.578125 26.035156 -18.753906 25.390625 -18.171875 C 24.753906 -17.585938 23.925781 -17.296875 22.90625 -17.296875 C 21.8125 -17.296875 20.921875 -17.691406 20.234375 -18.484375 C 19.554688 -19.273438 19.160156 -20.3125 19.046875 -21.59375 C 19.003906 -22.425781 19.019531 -23.132812 19.09375 -23.71875 C 19.175781 -24.3125 19.179688 -24.910156 19.109375 -25.515625 C 18.953125 -26.148438 18.710938 -26.570312 18.390625 -26.78125 C 18.066406 -26.988281 17.625 -27.09375 17.0625 -27.09375 C 14.757812 -27.09375 12.972656 -26.09375 11.703125 -24.09375 C 10.441406 -22.09375 9.8125 -18.898438 9.8125 -14.515625 C 9.8125 -10.691406 10.519531 -7.769531 11.9375 -5.75 C 13.351562 -3.726562 15.535156 -2.71875 18.484375 -2.71875 C 20.253906 -2.71875 21.6875 -3.035156 22.78125 -3.671875 C 23.882812 -4.316406 24.945312 -5.285156 25.96875 -6.578125 L 26.53125 -6.125 C 25.582031 -3.894531 24.125 -2.175781 22.15625 -0.96875 C 20.195312 0.238281 17.875 0.84375 15.1875 0.84375 Z M 15.1875 0.84375 "/></g></g></g><g fill="#f8f8f2" fill-opacity="1"><g transform="translate(196.698987, 206.249986)"><g><path d="M 11.390625 0.84375 C 9.921875 0.84375 8.570312 0.5625 7.34375 0 C 6.113281 -0.5625 5.148438 -1.472656 4.453125 -2.734375 C 3.753906 -4.003906 3.421875 -5.679688 3.453125 -7.765625 L 3.625 -22.328125 C 3.625 -23.203125 3.472656 -23.828125 3.171875 -24.203125 C 2.867188 -24.578125 2.394531 -24.84375 1.75 -25 L 1.078125 -25.21875 L 1.078125 -25.796875 L 11.21875 -27.78125 L 11.796875 -27.203125 L 11.5 -19.15625 L 11.5 -5.5 C 11.5 -4.289062 11.847656 -3.398438 12.546875 -2.828125 C 13.253906 -2.265625 14.132812 -1.984375 15.1875 -1.984375 C 16.25 -1.984375 17.195312 -2.132812 18.03125 -2.4375 C 18.863281 -2.738281 19.691406 -3.191406 20.515625 -3.796875 L 20.75 -22.28125 C 20.75 -23.144531 20.613281 -23.753906 20.34375 -24.109375 C 20.082031 -24.472656 19.59375 -24.734375 18.875 -24.890625 L 18.3125 -25.0625 L 18.3125 -25.625 L 28.234375 -27.78125 L 28.796875 -27.203125 L 28.625 -19.15625 L 28.625 -3.796875 C 28.625 -2.960938 28.738281 -2.316406 28.96875 -1.859375 C 29.195312 -1.410156 29.6875 -1.035156 30.4375 -0.734375 L 31.015625 -0.5625 L 31.015625 0 L 21.09375 0.5625 L 20.578125 -2.78125 C 19.328125 -1.757812 17.972656 -0.898438 16.515625 -0.203125 C 15.066406 0.492188 13.359375 0.84375 11.390625 0.84375 Z M 11.390625 0.84375 "/></g></g></g><g fill="#f8f8f2" fill-opacity="1"><g transform="translate(227.137763, 206.249986)"><g><path d="M 1.140625 0 L 1.140625 -0.5625 L 1.984375 -0.796875 C 2.742188 -1.023438 3.265625 -1.363281 3.546875 -1.8125 C 3.828125 -2.269531 3.96875 -2.859375 3.96875 -3.578125 L 3.96875 -21.3125 C 3.96875 -22.144531 3.828125 -22.757812 3.546875 -23.15625 C 3.265625 -23.550781 2.742188 -23.828125 1.984375 -23.984375 L 1.140625 -24.203125 L 1.140625 -24.765625 L 10.890625 -28.0625 L 11.453125 -27.5 L 11.96875 -22.625 L 11.96875 -22.171875 C 12.488281 -23.222656 13.175781 -24.191406 14.03125 -25.078125 C 14.882812 -25.972656 15.828125 -26.703125 16.859375 -27.265625 C 17.898438 -27.828125 18.929688 -28.109375 19.953125 -28.109375 C 21.390625 -28.109375 22.484375 -27.710938 23.234375 -26.921875 C 23.992188 -26.128906 24.375 -25.128906 24.375 -23.921875 C 24.375 -22.640625 24.003906 -21.644531 23.265625 -20.9375 C 22.535156 -20.238281 21.660156 -19.890625 20.640625 -19.890625 C 19.046875 -19.890625 17.644531 -20.6875 16.4375 -22.28125 L 16.328125 -22.390625 C 15.953125 -22.921875 15.515625 -23.210938 15.015625 -23.265625 C 14.523438 -23.328125 14.070312 -23.09375 13.65625 -22.5625 C 13.28125 -22.21875 12.96875 -21.8125 12.71875 -21.34375 C 12.476562 -20.875 12.242188 -20.335938 12.015625 -19.734375 L 12.015625 -3.90625 C 12.015625 -2.394531 12.675781 -1.453125 14 -1.078125 L 15.8125 -0.5625 L 15.8125 0 Z M 1.140625 0 "/></g></g></g><g fill="#f8f8f2" fill-opacity="1"><g transform="translate(250.434396, 206.249986)"><g><path d="M 9.40625 0.84375 C 7.21875 0.84375 5.375 0.222656 3.875 -1.015625 C 2.382812 -2.265625 1.640625 -4.0625 1.640625 -6.40625 C 1.640625 -8.175781 2.546875 -9.804688 4.359375 -11.296875 C 6.179688 -12.796875 9.035156 -13.925781 12.921875 -14.6875 C 13.523438 -14.800781 14.203125 -14.921875 14.953125 -15.046875 C 15.710938 -15.179688 16.507812 -15.320312 17.34375 -15.46875 L 17.34375 -19.953125 C 17.34375 -22.523438 17.03125 -24.328125 16.40625 -25.359375 C 15.78125 -26.398438 14.804688 -26.921875 13.484375 -26.921875 C 12.578125 -26.921875 11.859375 -26.628906 11.328125 -26.046875 C 10.804688 -25.460938 10.46875 -24.453125 10.3125 -23.015625 L 10.203125 -22.390625 C 10.128906 -20.765625 9.734375 -19.570312 9.015625 -18.8125 C 8.296875 -18.0625 7.40625 -17.6875 6.34375 -17.6875 C 5.363281 -17.6875 4.550781 -17.988281 3.90625 -18.59375 C 3.269531 -19.195312 2.953125 -20.007812 2.953125 -21.03125 C 2.953125 -22.582031 3.488281 -23.882812 4.5625 -24.9375 C 5.632812 -26 7.054688 -26.789062 8.828125 -27.3125 C 10.609375 -27.84375 12.539062 -28.109375 14.625 -28.109375 C 17.988281 -28.109375 20.585938 -27.285156 22.421875 -25.640625 C 24.253906 -24.003906 25.171875 -21.332031 25.171875 -17.625 L 25.171875 -5.109375 C 25.171875 -3.398438 25.960938 -2.546875 27.546875 -2.546875 L 28.796875 -2.546875 L 29.3125 -2.09375 C 28.59375 -1.1875 27.804688 -0.488281 26.953125 0 C 26.097656 0.488281 24.898438 0.734375 23.359375 0.734375 C 21.691406 0.734375 20.375 0.347656 19.40625 -0.421875 C 18.445312 -1.203125 17.816406 -2.234375 17.515625 -3.515625 C 16.378906 -2.304688 15.21875 -1.273438 14.03125 -0.421875 C 12.84375 0.421875 11.300781 0.84375 9.40625 0.84375 Z M 12.875 -2.609375 C 13.625 -2.609375 14.328125 -2.785156 14.984375 -3.140625 C 15.648438 -3.503906 16.4375 -4.0625 17.34375 -4.8125 L 17.34375 -14.34375 C 16.96875 -14.269531 16.585938 -14.191406 16.203125 -14.109375 C 15.828125 -14.035156 15.394531 -13.960938 14.90625 -13.890625 C 13.164062 -13.429688 11.773438 -12.664062 10.734375 -11.59375 C 9.703125 -10.519531 9.1875 -9.070312 9.1875 -7.25 C 9.1875 -5.707031 9.546875 -4.546875 10.265625 -3.765625 C 10.984375 -2.992188 11.851562 -2.609375 12.875 -2.609375 Z M 12.875 -2.609375 "/></g></g></g><g fill="#f8f8f2" fill-opacity="1"><g transform="translate(278.09568, 206.249986)"><g><path d="M 8.5 0.84375 C 7.144531 0.84375 5.992188 0.375 5.046875 -0.5625 C 4.097656 -1.507812 3.625 -2.644531 3.625 -3.96875 C 3.625 -5.289062 4.097656 -6.441406 5.046875 -7.421875 C 5.992188 -8.410156 7.144531 -8.90625 8.5 -8.90625 C 9.863281 -8.90625 11.015625 -8.410156 11.953125 -7.421875 C 12.898438 -6.441406 13.375 -5.289062 13.375 -3.96875 C 13.375 -2.644531 12.898438 -1.507812 11.953125 -0.5625 C 11.015625 0.375 9.863281 0.84375 8.5 0.84375 Z M 8.5 0.84375 "/></g></g></g></svg>